<svg width="516" height="506" viewBox="0 0 516 506" fill="none" xmlns="http://www.w3.org/2000/svg">
<path d="M109.55 482.5C111.95 458.5 127.884 436.5 135.55 428.5C134.717 426.167 132.35 420.3 129.55 415.5C113.55 418 98.0504 434 90.0504 446.5C83.6504 456.5 73.3838 454 69.0504 451.5C65.7171 449.5 60.0504 443.2 64.0504 434C82.8504 402.8 111.55 391.333 123.55 389.5C123.217 385.833 122.15 376.6 120.55 369C92.1504 367.4 71.0504 386 64.0504 395.5C61.3838 397.333 54.3504 399.9 47.5504 395.5C40.7504 391.1 43.0504 381.333 45.0504 377C46.7171 374.833 53.8504 367.5 69.0504 355.5C88.0504 340.5 114.05 341.5 119.55 342.5C119.95 333.7 127.05 316.833 130.55 309.5C128.217 307 120.95 297.6 110.55 280C100.15 262.4 100.55 242.667 102.05 235C105.384 222.167 113.95 194.4 121.55 186C138.35 182.4 147.55 163.833 150.05 155C157.217 160.833 170.55 177.8 166.55 199C162.55 220.2 143.217 231.833 134.05 235C130.85 256.2 143.05 277.5 150.05 285.5C207.55 292 325.95 301.1 339.55 285.5C356.55 266 355.05 240.5 355.05 235.5C316.65 219.1 318.717 186 324.55 171.5C326.717 167.667 332.75 158.9 339.55 154.5C339.15 172.5 358.05 183.333 367.55 186.5C372.717 194.333 383.85 215.1 387.05 235.5C388.05 278.5 365.55 301.5 359.05 309.5C364.65 315.5 368.717 333.667 370.05 342C410.85 339.6 436.717 364.667 445.55 377.5C446.717 380.5 447.75 388 442.55 394C436.05 401.5 427.05 397 420.55 391C402.15 371.4 377.884 368.167 368.05 369C367.55 373.833 366.35 384.5 365.55 388.5C405.15 399.7 421.05 424.833 424.55 436C425.217 439.667 424.85 448 418.05 452C411.25 456 403.884 451.333 401.05 448.5C399.884 446.667 396.25 441.4 391.05 435C380.55 421.5 362.55 415.5 359.55 415.5C358.55 419.5 355.05 425 353.55 428.5C368.55 441.5 378.55 472 379.05 486.5C379.45 498.1 371.884 501.333 368.05 501.5C363.717 502.167 354.45 500.7 352.05 489.5C346.133 459.912 338.27 453.183 334.697 450.126L334.55 450C323.75 464.8 298.384 470.833 287.05 472C270.884 472.167 232.25 472.4 207.05 472C175.55 471.5 157.55 453 154.05 448.5C140.05 468.5 143.05 474.5 139.55 489.5C136.75 501.5 126.384 502.833 121.55 502C117.55 501.333 109.55 496.5 109.55 482.5Z" fill="#9E1EEC"/>
<path d="M122.733 392C131.505 432 145.567 443.333 155.233 451C156.233 412.5 188.233 367 248.233 369C325.733 373 332.733 446.5 333.733 451C342.533 443.4 350.067 433.167 352.733 429C364.067 403.833 381.033 344.6 358.233 309C335.433 273.4 303.733 264.833 290.733 265C273.567 264.833 230.933 264.6 197.733 265C164.533 265.4 140.567 291.5 132.733 304.5C114.733 328.9 118.567 373 122.733 392Z" fill="#C972FF"/>
<path d="M165.733 199.5C110.933 201.5 103.9 161 107.233 140.5C60.4334 154.9 64.7334 194.5 73.7334 213C78.1117 222 89.2334 234.3 115.233 237.5C147.733 241.5 165.733 206.5 165.733 199.5Z" fill="#C972FF"/>
<path d="M381.233 140C385.633 192 344.067 201 322.733 199C331.133 231.4 357.233 238.5 369.233 238C382.567 237.667 410.933 230.5 417.733 204.5C429.233 155 389.233 143 381.233 140Z" fill="#C972FF"/>
<path fill-rule="evenodd" clip-rule="evenodd" d="M188.5 264C201.479 264 212 253.479 212 240.5C212 227.521 201.479 217 188.5 217C175.521 217 165 227.521 165 240.5C165 253.479 175.521 264 188.5 264ZM202.5 234L177.5 249L178.895 242.152L196 232.276L202.5 234Z" fill="#D7D7D7"/>
<path fill-rule="evenodd" clip-rule="evenodd" d="M292.5 264C305.479 264 316 253.479 316 240.5C316 227.521 305.479 217 292.5 217C279.521 217 269 227.521 269 240.5C269 253.479 279.521 264 292.5 264ZM277 234L302 248.5L298.105 239.647L284 232.1L277 234Z" fill="#D7D7D7"/>
<path d="M107.775 428.39C114.196 422.903 121.386 418.631 128.609 417.191C130.249 421.362 131.959 425.028 133.707 428.272C125.679 436.991 110.428 458.652 108.058 482.351L108.05 482.425V482.5C108.05 497.19 116.538 502.683 121.3 503.479C123.969 503.938 128.095 503.8 131.97 501.911C135.918 499.986 139.508 496.285 141.011 489.841C141.902 486.023 142.378 482.779 142.809 479.792L142.845 479.539C143.262 476.64 143.641 474.005 144.32 471.232C145.591 466.038 147.936 460.268 153.685 451.686C153.893 451.851 154.098 452.014 154.301 452.175L156.655 454.042L156.668 453.537C164.205 460.777 181.164 473.089 207.027 473.5C232.247 473.9 270.897 473.667 287.066 473.5L287.135 473.499L287.204 473.492C292.988 472.897 302.294 471.069 311.539 467.512C320.231 464.168 329.052 459.226 334.767 452.177C336.445 453.692 338.705 456.062 341.178 460.584C344.235 466.173 347.64 475.095 350.58 489.794L350.582 489.804L350.584 489.814C351.875 495.839 355.065 499.379 358.62 501.274C362.071 503.113 365.764 503.352 368.198 502.995C370.433 502.877 373.603 501.897 376.189 499.358C378.851 496.743 380.762 492.607 380.55 486.448C380.292 478.967 377.607 467.54 373.13 456.379C368.82 445.635 362.757 434.905 355.373 428.116C355.833 427.151 356.4 426.072 357.011 424.909C357.354 424.255 357.712 423.574 358.072 422.873C359.028 421.011 359.996 419.013 360.621 417.161C360.735 417.185 360.857 417.212 360.987 417.243C361.732 417.421 362.676 417.694 363.778 418.069C365.982 418.818 368.773 419.961 371.801 421.521C377.872 424.648 384.795 429.4 389.866 435.921L389.876 435.934L389.886 435.946C395.055 442.307 398.653 447.527 399.785 449.305L399.873 449.444L399.99 449.561C401.54 451.111 404.283 453.128 407.586 454.235C410.919 455.352 414.936 455.572 418.811 453.293C422.626 451.049 424.609 447.594 425.544 444.282C426.471 440.996 426.395 437.762 426.026 435.732L426.01 435.64L425.982 435.551C422.373 424.039 406.433 399.005 367.394 387.472C368.349 382.791 369.16 377.976 369.772 373.099C369.884 372.2 369.99 371.298 370.089 370.394C380.574 370.139 402.551 374.018 419.457 392.027L419.494 392.066L419.533 392.102C422.866 395.178 426.965 397.996 431.198 399.02C433.335 399.538 435.544 399.605 437.702 398.98C439.869 398.352 441.891 397.051 443.684 394.982C449.375 388.416 448.235 380.265 446.948 376.956L446.885 376.793L446.786 376.65C437.87 363.697 412.034 338.614 371.31 340.433C370.58 336.216 369.304 330.217 367.588 324.447C366.635 321.243 365.539 318.084 364.315 315.328C363.327 313.104 362.225 311.075 361.004 309.491C361.3 309.137 361.619 308.76 361.958 308.359C370.015 298.819 389.4 275.866 388.556 235.737C391.248 234.779 393.971 233.61 396.635 232.201C406.506 226.978 415.651 218.391 419.185 204.88L419.19 204.86L419.194 204.839C425.058 179.602 417.798 163.693 407.857 153.752C398.876 144.771 387.811 140.782 382.966 139.035C382.505 138.869 382.101 138.723 381.76 138.596L379.539 137.762L379.739 140.126C381.572 161.788 375.296 175.652 366.013 184.341C361.562 182.579 355.75 179.43 350.849 174.955C345.177 169.774 340.863 162.951 341.05 154.533L341.113 151.702L338.736 153.241C335.149 155.562 331.826 158.987 329.151 162.264C326.468 165.551 324.37 168.772 323.245 170.762L323.196 170.848L323.159 170.94C320.139 178.446 318.109 190.694 321.773 203.209C323.567 209.335 326.716 215.49 331.734 221.16C338.206 229.373 346.183 234.218 353.565 236.849C353.663 243.991 353.834 266.472 338.782 284.095C324.738 272.024 310.287 266.422 299.808 264.415C310.05 261.289 317.5 251.765 317.5 240.5C317.5 226.693 306.307 215.5 292.5 215.5C278.693 215.5 267.5 226.693 267.5 240.5C267.5 250.761 273.682 259.579 282.526 263.431C262.425 263.283 226.975 263.156 198.331 263.493C207.251 259.674 213.5 250.817 213.5 240.5C213.5 226.693 202.307 215.5 188.5 215.5C174.693 215.5 163.5 226.693 163.5 240.5C163.5 252.786 172.363 263.003 184.044 265.104C172.817 267.618 162.969 272.817 154.831 278.818C153.068 280.118 151.383 281.457 149.78 282.816C146.579 278.73 142.63 272.312 139.622 264.652C136.299 256.191 134.165 246.324 135.362 236.482C139.373 234.915 143.02 232.793 146.292 230.355C148.604 228.794 150.968 226.967 153.253 224.867C159.902 218.757 165.949 210.276 168.024 199.278C172.168 177.32 158.386 159.851 150.997 153.837L149.228 152.397L148.607 154.592C147.402 158.849 144.555 165.525 139.969 171.554C135.45 177.496 129.345 182.68 121.586 184.456C119.389 182.318 117.519 180.016 115.936 177.612C108.011 165.58 107.088 150.743 108.714 140.741L109.102 138.356L106.792 139.066C82.946 146.404 71.9008 160.269 68.1068 174.834C64.3447 189.277 67.771 204.173 72.3845 213.656C76.0352 221.16 84.0513 230.62 100.377 235.852C99.0138 244.44 99.1025 263.575 109.259 280.763C118.164 295.833 124.814 304.969 128.084 308.941C124.02 316.139 121.404 324.466 119.821 333.089C119.04 335.862 118.451 338.503 118.187 340.796C114.459 340.388 107.396 340.222 99.1305 341.518C89.4118 343.043 77.8893 346.611 68.121 354.323C52.9073 366.333 45.6485 373.762 43.8615 376.085L43.759 376.219L43.6885 376.371C42.6213 378.684 41.4735 382.428 41.5005 386.236C41.5276 390.066 42.7624 394.188 46.7356 396.759C54.2214 401.603 61.9348 398.775 64.9002 396.736L65.1082 396.593L65.258 396.39C71.8986 387.378 91.6413 369.917 118.226 370.414C118.728 377.277 119.575 383.503 120.51 388.557C106.943 391.629 80.4994 403.795 62.7656 433.226L62.7144 433.311L62.6748 433.402C60.502 438.399 60.9305 442.714 62.4316 446.063C63.9067 449.355 66.3851 451.65 68.2787 452.786L68.2897 452.793L68.3008 452.799C70.674 454.168 74.6245 455.524 78.895 455.183C83.2487 454.835 87.8491 452.722 91.3138 447.309C95.2427 441.17 101.023 434.16 107.775 428.39ZM198.685 234.54L179.65 245.961L180.23 243.113L196.214 233.885L198.685 234.54ZM296.941 240.725L298.776 244.896L280.862 234.506L283.818 233.704L296.941 240.725Z" stroke="black" stroke-width="3"/>
<rect x="0.5" y="0.5" width="487" height="188" rx="28.5" fill="black" stroke="white"/>
<path d="M165.733 199.5C110.933 201.5 103.9 161 107.233 140.5C60.4334 154.9 64.7334 194.5 73.7334 213C78.1117 222 89.2334 234.3 115.233 237.5C147.733 241.5 165.733 206.5 165.733 199.5Z" fill="#C972FF"/>
<path d="M381.233 140C385.633 192 344.067 201 322.733 199C331.133 231.4 357.233 238.5 369.233 238C382.567 237.667 410.933 230.5 417.733 204.5C429.233 155 389.233 143 381.233 140Z" fill="#C972FF"/>
<path d="M120.455 120.909V111.636L161.364 46.9091H168.091V61.2727H163.545L132.636 110.182V110.909H187.727V120.909H120.455ZM164.273 140V118.091V113.773V46.9091H175V140H164.273ZM235.125 141.273C228.277 141.273 222.443 139.409 217.625 135.682C212.807 131.924 209.125 126.485 206.58 119.364C204.034 112.212 202.761 103.576 202.761 93.4545C202.761 83.3939 204.034 74.803 206.58 67.6818C209.155 60.5303 212.852 55.0758 217.67 51.3182C222.519 47.5303 228.337 45.6364 235.125 45.6364C241.913 45.6364 247.716 47.5303 252.534 51.3182C257.383 55.0758 261.08 60.5303 263.625 67.6818C266.201 74.803 267.489 83.3939 267.489 93.4545C267.489 103.576 266.216 112.212 263.67 119.364C261.125 126.485 257.443 131.924 252.625 135.682C247.807 139.409 241.973 141.273 235.125 141.273ZM235.125 131.273C241.913 131.273 247.186 128 250.943 121.455C254.701 114.909 256.58 105.576 256.58 93.4545C256.58 85.3939 255.716 78.5303 253.989 72.8636C252.292 67.197 249.837 62.8788 246.625 59.9091C243.443 56.9394 239.61 55.4545 235.125 55.4545C228.398 55.4545 223.14 58.7727 219.352 65.4091C215.564 72.0151 213.67 81.3636 213.67 93.4545C213.67 101.515 214.519 108.364 216.216 114C217.913 119.636 220.352 123.924 223.534 126.864C226.746 129.803 230.61 131.273 235.125 131.273ZM282.58 120.909V111.636L323.489 46.9091H330.216V61.2727H325.67L294.761 110.182V110.909H349.852V120.909H282.58ZM326.398 140V118.091V113.773V46.9091H337.125V140H326.398Z" fill="white"/>
</svg>
