<svg width="579" height="517" viewBox="0 0 579 517" fill="none" xmlns="http://www.w3.org/2000/svg">
<path d="M260.124 273.995C244.786 273.995 231.217 278.563 226.348 281V263.335V245.67C219.451 244.147 204.562 239.091 200.18 231.051C195.799 223.01 194.906 214.706 195.007 211.558C194.805 205.264 199.937 191.274 222.089 185.67C227.381 184.519 232.972 185.181 237.911 186.532C240.65 178.022 250.874 161 269.861 161C288.848 161 299.072 177.447 301.81 185.67C309.722 184.147 312.156 183.835 320.067 185.67C340.028 190.3 345.627 204.858 345.931 211.558C346.235 214.706 345.688 223.01 341.063 231.051C336.438 239.091 321.284 244.147 314.286 245.67V263.335V281C293.899 272.168 270.469 273.995 260.124 273.995Z" fill="#D9D9D9"/>
<path d="M237.911 186.532C232.972 185.181 227.381 184.519 222.089 185.67C199.937 191.274 194.805 205.264 195.007 211.558C194.906 214.706 195.799 223.01 200.18 231.051C204.562 239.091 219.451 244.147 226.348 245.67V263.335M237.911 186.532C243.423 188.04 235.344 184.873 237.911 186.532ZM237.911 186.532C240.65 178.022 250.874 161 269.861 161C288.848 161 299.072 177.447 301.81 185.67C309.722 184.147 312.156 183.835 320.067 185.67C340.028 190.3 345.627 204.858 345.931 211.558C346.235 214.706 345.688 223.01 341.063 231.051C336.438 239.091 321.284 244.147 314.286 245.67V263.335M226.348 263.335V281C231.217 278.563 244.786 273.995 260.124 273.995C270.469 273.995 293.899 272.168 314.286 281V263.335M226.348 263.335C231.318 261.101 246.979 256.817 269.861 257.548C292.743 258.279 309.012 261.711 314.286 263.335" stroke="black" stroke-width="5"/>
<path d="M135.55 492.5C137.95 468.5 153.884 446.5 161.55 438.5C160.717 436.167 158.35 430.3 155.55 425.5C139.55 428 124.05 444 116.05 456.5C109.65 466.5 99.3838 464 95.0504 461.5C91.7171 459.5 86.0504 453.2 90.0504 444C108.85 412.8 137.55 401.333 149.55 399.5C149.217 395.833 148.15 386.6 146.55 379C118.15 377.4 97.0504 396 90.0504 405.5C87.3838 407.333 80.3504 409.9 73.5504 405.5C66.7504 401.1 69.0504 391.333 71.0504 387C72.7171 384.833 79.8504 377.5 95.0504 365.5C114.05 350.5 140.05 351.5 145.55 352.5C145.95 343.7 153.05 326.833 156.55 319.5C154.217 317 146.95 307.6 136.55 290C126.15 272.4 126.55 252.667 128.05 245C131.384 232.167 139.95 204.4 147.55 196C164.35 192.4 173.55 173.833 176.05 165C183.217 170.833 196.55 187.8 192.55 209C188.55 230.2 169.217 241.833 160.05 245C156.85 266.2 169.05 287.5 176.05 295.5C233.55 302 351.95 311.1 365.55 295.5C382.55 276 381.05 250.5 381.05 245.5C342.65 229.1 344.717 196 350.55 181.5C352.717 177.667 358.75 168.9 365.55 164.5C365.15 182.5 384.05 193.333 393.55 196.5C398.717 204.333 409.85 225.1 413.05 245.5C414.05 288.5 391.55 311.5 385.05 319.5C390.65 325.5 394.717 343.667 396.05 352C436.85 349.6 462.717 374.667 471.55 387.5C472.717 390.5 473.75 398 468.55 404C462.05 411.5 453.05 407 446.55 401C428.15 381.4 403.884 378.167 394.05 379C393.55 383.833 392.35 394.5 391.55 398.5C431.15 409.7 447.05 434.833 450.55 446C451.217 449.667 450.85 458 444.05 462C437.25 466 429.884 461.333 427.05 458.5C425.884 456.667 422.25 451.4 417.05 445C406.55 431.5 388.55 425.5 385.55 425.5C384.55 429.5 381.05 435 379.55 438.5C394.55 451.5 404.55 482 405.05 496.5C405.45 508.1 397.884 511.333 394.05 511.5C389.717 512.167 380.45 510.7 378.05 499.5C372.133 469.912 364.27 463.183 360.697 460.126L360.55 460C349.75 474.8 324.384 480.833 313.05 482C296.884 482.167 258.25 482.4 233.05 482C201.55 481.5 183.55 463 180.05 458.5C166.05 478.5 169.05 484.5 165.55 499.5C162.75 511.5 152.384 512.833 147.55 512C143.55 511.333 135.55 506.5 135.55 492.5Z" fill="#EC5C1E"/>
<path d="M148.733 402C157.505 442 171.567 453.333 181.233 461C181.657 444.674 206.313 414.899 223.733 408.5C248.233 399.5 264.267 394 269 379C273.5 394 283.55 397.5 313.05 407.5C328.004 412.569 344 422.5 359.733 461C368.533 453.4 376.067 443.167 378.733 439C390.067 413.833 407.033 354.6 384.233 319C361.433 283.4 329.733 274.833 316.733 275C299.567 274.833 256.933 274.6 223.733 275C190.533 275.4 166.567 301.5 158.733 314.5C140.733 338.9 144.567 383 148.733 402Z" fill="#FF7A00"/>
<path d="M191.733 209.5C136.933 211.5 129.9 171 133.233 150.5C86.4334 164.9 90.7334 204.5 99.7334 223C104.112 232 115.233 244.3 141.233 247.5C173.733 251.5 191.733 216.5 191.733 209.5Z" fill="#FF7A00"/>
<path d="M407.233 150C411.633 202 370.067 211 348.733 209C357.133 241.4 383.233 248.5 395.233 248C408.567 247.667 436.933 240.5 443.733 214.5C455.233 165 415.233 153 407.233 150Z" fill="#FF7A00"/>
<path d="M238 250.5C238 263.479 227.479 274 214.5 274C201.521 274 191 263.479 191 250.5C191 237.521 201.521 227 214.5 227C227.479 227 238 237.521 238 250.5Z" fill="black"/>
<path d="M342 250.5C342 263.479 331.479 274 318.5 274C305.521 274 295 263.479 295 250.5C295 237.521 305.521 227 318.5 227C331.479 227 342 237.521 342 250.5Z" fill="black"/>
<path d="M199.5 249.409L212 241.909L224.5 234.409V239.685L207.395 249.561L224.5 259.133V264.409L199.5 249.409Z" fill="white"/>
<path d="M332.5 248.909L307.5 234.409V239.509L324.605 249.056L307.5 258.309V263.409L332.5 248.909Z" fill="white"/>
<path d="M134.1 438.77C140.365 433.416 147.329 429.26 154.299 427.766C155.846 431.66 157.454 435.114 159.099 438.196C150.97 447.125 135.922 468.689 133.56 492.301L133.55 492.4V492.5C133.55 507.418 142.198 513.131 147.214 513.972C149.968 514.445 154.204 514.304 158.19 512.36C162.271 510.37 165.96 506.547 167.498 499.954C168.394 496.113 168.873 492.852 169.303 489.863L169.339 489.62C169.757 486.714 170.133 484.1 170.806 481.35C172.037 476.317 174.294 470.712 179.8 462.416C179.864 462.466 179.927 462.517 179.991 462.567L183.129 465.056L183.139 464.667C191.113 472.043 207.895 483.601 233.019 484C258.247 484.4 296.902 484.167 313.071 484L313.163 483.999L313.255 483.99C319.079 483.39 328.428 481.553 337.719 477.979C346.276 474.687 355.017 469.832 360.817 462.902C362.42 464.404 364.487 466.705 366.74 470.823C369.765 476.354 373.156 485.225 376.089 499.892L376.092 499.906L376.095 499.919C377.416 506.085 380.697 509.75 384.385 511.715C387.934 513.607 391.726 513.858 394.248 513.493C396.588 513.364 399.865 512.341 402.539 509.714C405.315 506.989 407.266 502.71 407.049 496.431C406.789 488.873 404.084 477.386 399.594 466.193C395.326 455.554 389.325 444.875 381.983 438.001C382.405 437.137 382.905 436.187 383.443 435.162C383.788 434.504 384.15 433.816 384.517 433.101C385.4 431.382 386.308 429.518 386.946 427.748C387.661 427.921 388.563 428.183 389.617 428.542C391.797 429.284 394.566 430.417 397.572 431.965C403.604 435.073 410.459 439.783 415.472 446.228L415.485 446.245L415.498 446.261C420.656 452.609 424.243 457.814 425.363 459.574L425.481 459.759L425.636 459.914C427.231 461.509 430.039 463.573 433.427 464.709C436.856 465.858 441.032 466.096 445.064 463.724C449.018 461.399 451.065 457.82 452.025 454.418C452.976 451.05 452.899 447.739 452.518 445.642L452.496 445.52L452.459 445.402C448.814 433.773 432.853 408.76 393.975 397.123C394.893 392.571 395.674 387.896 396.268 383.161C396.363 382.404 396.453 381.646 396.538 380.885C407.073 380.75 428.534 384.731 445.092 402.369L445.141 402.421L445.194 402.47C448.554 405.571 452.728 408.454 457.08 409.506C459.285 410.04 461.584 410.115 463.842 409.46C466.111 408.802 468.213 407.443 470.062 405.31C475.917 398.554 474.741 390.187 473.414 386.775L473.33 386.558L473.198 386.366C464.255 373.373 438.427 348.284 397.727 349.915C396.983 345.71 395.732 339.902 394.067 334.305C393.111 331.088 392.008 327.907 390.772 325.125C389.842 323.032 388.802 321.086 387.643 319.508C387.865 319.243 388.099 318.966 388.344 318.677C396.386 309.155 415.788 286.185 415.063 246.086C417.666 245.143 420.295 244.005 422.869 242.643C432.827 237.374 442.09 228.688 445.668 215.006L445.675 214.979L445.681 214.953C451.582 189.553 444.278 173.466 434.21 163.398C425.145 154.334 413.979 150.31 409.136 148.565C408.677 148.399 408.274 148.254 407.936 148.127L404.974 147.017L405.24 150.169C407.046 171.507 400.939 185.167 391.902 193.758C387.539 191.994 381.928 188.916 377.187 184.586C371.578 179.463 367.367 172.768 367.55 164.544L367.634 160.77L364.464 162.821C360.815 165.182 357.454 168.652 354.764 171.948C352.062 175.257 349.948 178.501 348.809 180.516L348.744 180.631L348.695 180.754C345.641 188.345 343.592 200.709 347.294 213.35C349.106 219.538 352.284 225.747 357.333 231.461C363.773 239.638 371.695 244.514 379.069 247.201C379.162 254.64 379.092 276.25 364.725 293.388C351.517 282.151 337.975 276.57 327.691 274.293C337.232 270.605 344 261.343 344 250.5C344 236.417 332.583 225 318.5 225C304.417 225 293 236.417 293 250.5C293 260.177 298.39 268.595 306.332 272.915C286.469 272.778 253.777 272.673 226.571 272.967C234.566 268.663 240 260.216 240 250.5C240 236.417 228.583 225 214.5 225C200.417 225 189 236.417 189 250.5C189 262.278 196.985 272.191 207.837 275.121C197.397 277.804 188.204 282.76 180.534 288.415C178.908 289.615 177.347 290.847 175.856 292.098C172.745 288.038 168.98 281.835 166.087 274.469C162.817 266.142 160.717 256.474 161.824 246.837C165.763 245.267 169.352 243.168 172.575 240.767C174.907 239.193 177.289 237.351 179.591 235.235C186.297 229.073 192.416 220.502 194.516 209.371C198.707 187.16 184.776 169.523 177.313 163.449L174.954 161.529L174.126 164.455C172.936 168.66 170.115 175.278 165.571 181.252C161.145 187.071 155.22 192.109 147.74 193.906C145.651 191.847 143.868 189.637 142.354 187.337C134.518 175.44 133.595 160.74 135.207 150.821L135.725 147.641L132.645 148.588C108.65 155.972 97.4649 169.959 93.623 184.708C89.8235 199.295 93.2835 214.314 97.9349 223.875C101.617 231.443 109.639 240.898 125.819 246.196C124.512 255.064 124.763 273.983 134.829 291.017C143.543 305.765 150.111 314.855 153.481 318.994C149.483 326.176 146.902 334.439 145.333 342.976C144.605 345.564 144.042 348.047 143.751 350.248C139.864 349.874 133.007 349.777 125.053 351.024C115.282 352.557 103.669 356.148 93.8111 363.93C78.5929 375.945 71.2922 383.405 69.4652 385.781L69.3285 385.958L69.2345 386.162C68.1449 388.523 66.9729 392.341 67.0005 396.239C67.0283 400.169 68.2997 404.485 72.4639 407.179C80.1784 412.171 88.1185 409.255 91.1835 407.148L91.4609 406.957L91.6605 406.686C98.2067 397.802 117.624 380.621 143.762 380.907C144.252 387.399 145.049 393.307 145.932 398.177C132.112 401.448 105.947 413.743 88.3374 442.968L88.2691 443.081L88.2163 443.203C85.9859 448.332 86.4183 452.794 87.9753 456.268C89.4977 459.665 92.0522 462.033 94.0214 463.215L94.0361 463.224L94.051 463.232C96.493 464.641 100.544 466.032 104.935 465.681C109.437 465.321 114.182 463.13 117.735 457.578C121.64 451.476 127.389 444.505 134.1 438.77Z" stroke="black" stroke-width="4"/>
<path d="M129.148 152.251C111.538 143.658 95.3089 125.572 89.3956 117.603C79.3828 102.259 59.3149 91.3046 50.5325 87.7455C40.6939 84.8814 19.2739 83.4593 12.3037 100.684C5.33344 117.908 18.6659 132.475 26.2033 137.606C31.4737 141.993 48.3135 150.646 73.5101 150.158C98.7067 149.671 117.761 158.194 124.139 162.516L164.979 182.444C167.441 183.766 176.223 189.383 191.653 201.27C207.082 213.156 221.741 218.977 227.142 220.402C233.939 221.661 247.373 220.832 246.732 207.447C246.091 194.062 222.494 184.363 210.776 181.187L178.377 174.093C169.305 170.393 146.758 160.844 129.148 152.251Z" fill="#B4673D" stroke="black" stroke-width="3"/>
<g style="mix-blend-mode:overlay">
<ellipse cx="49.3817" cy="118.629" rx="24.8024" ry="38.0293" transform="rotate(-63.99 49.3817 118.629)" fill="url(#paint0_linear_27_29)"/>
</g>
<path d="M411.189 137V136.708L411.032 136.462C402.349 122.851 397.329 106.753 397.329 89.5C397.329 40.6384 437.608 1 487.329 1C537.051 1 577.329 40.6384 577.329 89.5C577.329 138.362 537.051 178 487.329 178C467.108 178 448.447 171.443 433.423 160.375L433.205 160.215L432.937 160.186L417.437 158.506L416.935 158.451L416.593 158.823C407.186 169.056 387.035 190.845 380.817 197.098C376.755 198.104 373.861 198.053 371.836 197.411C369.809 196.768 368.574 195.51 367.852 193.923C367.114 192.301 366.899 190.295 367.041 188.21C367.174 186.253 367.618 184.289 368.172 182.628L410.769 152.315L411.189 152.016V151.5V137Z" fill="#424242" stroke="black" stroke-width="2"/>
<path d="M569 89C569 133.138 532.333 169 487 169C441.667 169 405 133.138 405 89C405 44.8624 441.667 9 487 9C532.333 9 569 44.8624 569 89Z" fill="#0B0A0A" stroke="#686868" stroke-width="4"/>
<path d="M191.733 209.5C136.933 211.5 129.9 171 133.233 150.5C86.4334 164.9 90.7334 204.5 99.7334 223C104.112 232 115.233 244.3 141.233 247.5C173.733 251.5 191.733 216.5 191.733 209.5Z" fill="#FF7A00"/>
<path d="M407.233 150C411.633 202 370.067 211 348.733 209C357.133 241.4 383.233 248.5 395.233 248C408.567 247.667 436.933 240.5 443.733 214.5C455.233 165 415.233 153 407.233 150Z" fill="#FF7A00"/>
<path d="M134.22 150.66L134.479 149.07L132.939 149.544C109.242 156.836 98.3366 170.58 94.5907 184.96C90.8659 199.26 94.2584 214.032 98.8341 223.437C103.367 232.756 114.79 245.253 141.111 248.493C157.784 250.544 170.704 242.577 179.4 233.309C183.75 228.674 187.066 223.692 189.299 219.416C190.416 217.278 191.268 215.306 191.842 213.631C192.409 211.981 192.733 210.543 192.733 209.5V208.463L191.697 208.501C164.577 209.49 149.483 199.98 141.519 187.887C133.505 175.72 132.581 160.745 134.22 150.66ZM348.827 208.004L347.408 207.871L347.765 209.251C356.311 242.214 382.921 249.51 395.266 248.999C402.062 248.828 412.639 246.924 422.401 241.759C432.185 236.583 441.212 228.094 444.701 214.753L444.704 214.74L444.707 214.726C450.533 189.652 443.318 173.92 433.503 164.105C424.606 155.209 413.643 151.254 408.795 149.505C408.334 149.339 407.928 149.192 407.584 149.064L406.104 148.508L406.237 150.084C408.41 175.766 399.248 190.648 387.071 198.923C374.813 207.253 359.342 208.99 348.827 208.004Z" stroke="black" stroke-width="2"/>
<defs>
<linearGradient id="paint0_linear_27_29" x1="20.0104" y1="109.928" x2="93.7648" y2="109.267" gradientUnits="userSpaceOnUse">
<stop/>
<stop offset="1" stop-color="#D9D9D9" stop-opacity="0"/>
</linearGradient>
</defs>
</svg>
